<svg xmlns="http://www.w3.org/2000/svg" viewBox="0 0 32 32" fill="none">
  <rect width="32" height="32" rx="8" fill="#e6fffa"/>
  <rect x="7" y="12" width="18" height="14" rx="2.5" fill="url(#g)"/>
  <path fill="#0f766e" d="M16 7c-1.38 0-2.5 1.12-2.5 2.5 0 .45.12.87.33 1.23A2.5 2.5 0 0 1 16 7c1.38 0 2.5 1.12 2.5 2.5 0 .45-.12.87-.33 1.23A2.5 2.5 0 0 0 16 7Z" opacity="0.45"/>
  <rect x="14" y="9" width="4" height="17" rx="1" fill="#ccfbf1"/>
  <rect x="7" y="15" width="18" height="4" rx="1" fill="#ccfbf1"/>
  <defs>
    <linearGradient id="g" x1="7" x2="25" y1="12" y2="26" gradientUnits="userSpaceOnUse">
      <stop stop-color="#0d9488"/>
      <stop offset="1" stop-color="#2563eb"/>
    </linearGradient>
  </defs>
</svg>
